PathFileType	4	(X/Y/Z)	/Users/itak/Documents/Research/Walk-IL/dataset/trc/00277_00010.trc
DataRate	CameraRate	NumFrames	NumMarkers	Units	OrigDataRate	OrigDataStartFrame	OrigNumFrames
100.000000	100.000000	4	53	mm	100.000000	0	672
Frame#	Time	RPSI			LPSI			L3			STRN			T10			C7			CLAV			RBAK			LBAK			LSHO			LUPA			LAEL			LAOL			LWTS			LWPS			LFRA			LIFD			LHPS			LHTS			RSHO			RUPA			RAEL			RAOL			RWTS			RWPS			RFRA			RIFD			RHTS			RHPS			RBHD			LFHD			RFHD			LBHD			LHIP			RHIP			RASI			LASI			LKNE			LTHI			LANK			LTIP			LTOE			LMT1			LMT5			LHEE			RKNE			RTHI			RANK			RTIP			RTOE			RMT1			RMT5			RHEE			
		X1	Y1	Z1	X2	Y2	Z2	X3	Y3	Z3	X4	Y4	Z4	X5	Y5	Z5	X6	Y6	Z6	X7	Y7	Z7	X8	Y8	Z8	X9	Y9	Z9	X10	Y10	Z10	X11	Y11	Z11	X12	Y12	Z12	X13	Y13	Z13	X14	Y14	Z14	X15	Y15	Z15	X16	Y16	Z16	X17	Y17	Z17	X18	Y18	Z18	X19	Y19	Z19	X20	Y20	Z20	X21	Y21	Z21	X22	Y22	Z22	X23	Y23	Z23	X24	Y24	Z24	X25	Y25	Z25	X26	Y26	Z26	X27	Y27	Z27	X28	Y28	Z28	X29	Y29	Z29	X30	Y30	Z30	X31	Y31	Z31	X32	Y32	Z32	X33	Y33	Z33	X34	Y34	Z34	X35	Y35	Z35	X36	Y36	Z36	X37	Y37	Z37	X38	Y38	Z38	X39	Y39	Z39	X40	Y40	Z40	X41	Y41	Z41	X42	Y42	Z42	X43	Y43	Z43	X44	Y44	Z44	X45	Y45	Z45	X46	Y46	Z46	X47	Y47	Z47	X48	Y48	Z48	X49	Y49	Z49	X50	Y50	Z50	X51	Y51	Z51	X52	Y52	Z52	X53	Y53	Z53	

1	0	-109.3868942260742	1016.7236328125	1327.613891601562	-120.5946426391602	1007.40283203125	1153.213623046875	-94.05480194091797	1079.364379882812	1233.04736328125	158.8392791748047	1249.445556640625	1209.540893554688	-107.6775360107422	1193.421630859375	1229.948852539062	-59.44189453125	1437.65283203125	1206.838134765625	98.48985290527344	1352.2578125	1208.472412109375	-107.2781600952148	1301.28759765625	1288.99658203125	-80.55445861816406	1400.248657226562	1104.0419921875	8.674205780029297	1404.247436523438	1050.534790039062	-20.5605525970459	1287.984497070312	976.9415283203125	-8.444933891296387	1084.656372070312	961.5009765625	-75.74373626708984	1069.5908203125	1015.958312988281	75.33889007568359	865.5707397460938	1018.541137695312	48.08005523681641	852.1253662109375	953.1593017578125	9.711853981018066	981.0089721679688	954.489990234375	80.80892944335938	678.2642822265625	1022.309936523438	53.03307342529297	763.4219970703125	957.9601440429688	102.791862487793	767.2988891601562	1002.350463867188	17.32503128051758	1415.10009765625	1362.827758789062	14.99631881713867	1356.589721679688	1430.42626953125	19.95107650756836	1088.649780273438	1481.014892578125	-28.77521324157715	1082.17431640625	1399.42529296875	112.8992462158203	867.5197143554688	1408.006225585938	84.10558319091797	859.91748046875	1486.831665039062	47.10663986206055	1021.207946777344	1487.191772460938	116.5259475708008	682.0936889648438	1400.25048828125	145.5801696777344	751.0082397460938	1416.818359375	106.7643966674805	748.1382446289062	1474.660034179688	-48.51974868774414	1597.590087890625	1261.7607421875	134.2767944335938	1638.883911132812	1161.985717773438	122.9411087036133	1639.177490234375	1253.339233398438	-29.08564949035645	1586.268676757812	1117.059204101562	-62.4482421875	956.4132080078125	1054.076171875	3.876510858535767	959.0018920898438	1418.3369140625	111.8318252563477	962.37841796875	1341.5947265625	80.87169647216797	957.6516723632812	1092.482543945312	-23.01838302612305	488.2670593261719	1082.384399414062	-24.32677268981934	630.70654296875	1061.582641601562	-112.6080932617188	47.09257888793945	1102.714965820312	-79.61832427978516	266.69189453125	1084.186279296875	96.96682739257812	39.63404083251953	1151.694702148438	28.20900535583496	30.62843704223633	1194.622924804688	11.47194194793701	45.54254531860352	1083.538330078125	-156.7158050537109	39.01885604858398	1162.197509765625	15.2325439453125	486.1329345703125	1385.567138671875	52.86520385742188	747.8136596679688	1413.172485351562	-56.62861251831055	46.177978515625	1371.616333007812	17.33465194702148	364.2373352050781	1373.059326171875	130.2839965820312	44.7807731628418	1289.660766601562	67.31449127197266	43.05758666992188	1259.48046875	49.38084411621094	36.60393142700195	1375.388671875	-115.7129592895508	42.98314666748047	1327.722045898438	
2	0.01	-109.0287475585938	1016.820983886719	1327.923706054688	-120.3393402099609	1007.475708007812	1153.551879882812	-93.77484893798828	1079.429565429688	1233.359619140625	159.1436157226562	1249.366821289062	1209.731079101562	-107.2646484375	1193.431762695312	1230.363891601562	-58.9879150390625	1437.647583007812	1207.180908203125	98.85246276855469	1352.173706054688	1208.690673828125	-106.8922424316406	1301.305297851562	1289.356079101562	-80.20015716552734	1400.243286132812	1104.351318359375	8.975520133972168	1404.216918945312	1050.798583984375	-20.38976097106934	1287.923950195312	977.2678833007812	-8.245189666748047	1084.603515625	961.8466186523438	-75.44582366943359	1069.56884765625	1016.36767578125	75.69752502441406	865.5712890625	1018.853454589844	48.37480926513672	852.0968017578125	953.5177612304688	10.00443649291992	980.9720458984375	954.82763671875	81.27818298339844	678.2655639648438	1022.654479980469	53.36859512329102	763.4406127929688	958.3223266601562	103.1468048095703	767.30712890625	1002.648071289062	17.79519081115723	1415.019653320312	1363.020751953125	15.59329223632812	1356.501708984375	1430.655395507812	20.48579978942871	1088.617431640625	1481.234008789062	-28.39168167114258	1082.120727539062	1399.73779296875	113.2411041259766	867.433837890625	1408.18359375	84.5858154296875	859.9398193359375	1487.126098632812	47.63071441650391	1021.214721679688	1487.422973632812	116.9986267089844	681.982666015625	1400.644409179688	145.9178161621094	750.9041137695312	1417.107299804688	107.2201538085938	748.1116333007812	1475.032592773438	-47.84573364257812	1597.655029296875	1262.329223632812	134.706298828125	1638.708984375	1161.818237304688	123.6593399047852	1639.059448242188	1253.201416015625	-28.89364242553711	1586.358276367188	1117.542602539062	-62.26848983764648	956.4453125	1054.365356445312	4.102380275726318	959.1057739257812	1418.701416015625	112.2664260864258	962.331298828125	1341.782592773438	81.12671661376953	957.5899047851562	1092.718505859375	-23.02791976928711	488.2695617675781	1082.561401367188	-24.27396583557129	630.7115478515625	1061.773071289062	-112.6008987426758	47.10640716552734	1102.730712890625	-79.62999725341797	266.7242431640625	1084.26416015625	96.97760009765625	39.64106750488281	1151.691772460938	28.21212387084961	30.62799453735352	1194.62158203125	11.47365093231201	45.54727554321289	1083.536743164062	-156.6706848144531	39.00389862060547	1162.20068359375	15.25193691253662	486.0645446777344	1385.67578125	52.95172500610352	747.7490844726562	1413.439208984375	-56.63245010375977	46.16904067993164	1371.618041992188	17.339111328125	364.241455078125	1373.205200195312	130.2797698974609	44.76910400390625	1289.654907226562	67.31455993652344	43.0614013671875	1259.482055664062	49.37808990478516	36.59316253662109	1375.388916015625	-115.7099838256836	42.97972869873047	1327.733764648438	
3	0.02	-108.5649948120117	1016.930847167969	1328.3193359375	-119.9853134155273	1007.56298828125	1153.979248046875	-93.39303588867188	1079.499877929688	1233.769409179688	159.5425567626953	1249.26953125	1209.967895507812	-106.7571182250977	1193.440063476562	1230.856079101562	-58.42203140258789	1437.635620117188	1207.604736328125	99.31460571289062	1352.062377929688	1208.966064453125	-106.3748779296875	1301.326538085938	1289.822509765625	-79.75856018066406	1400.237182617188	1104.747192382812	9.357883453369141	1404.179321289062	1051.137573242188	-20.15971755981445	1287.8466796875	977.6823120117188	-7.987251758575439	1084.539428710938	962.291259765625	-75.08431243896484	1069.543701171875	1016.892517089844	76.14547729492188	865.5808715820312	1019.253723144531	48.75529861450195	852.0643310546875	953.970703125	10.36846351623535	980.9262084960938	955.263671875	81.84462738037109	678.2750244140625	1023.110900878906	53.79308319091797	763.4570922851562	958.7896728515625	103.5944213867188	767.320556640625	1003.040466308594	18.42263984680176	1414.925170898438	1363.280151367188	16.35193824768066	1356.403198242188	1430.954467773438	21.18024253845215	1088.578002929688	1481.533081054688	-27.86190795898438	1082.0537109375	1400.155517578125	113.712776184082	867.3379516601562	1408.44384765625	85.21286010742188	859.9616088867188	1487.507446289062	48.29931640625	1021.220886230469	1487.73681640625	117.5900421142578	681.863037109375	1401.12109375	146.3782043457031	750.8099365234375	1417.503295898438	107.7951965332031	748.078369140625	1475.496948242188	-46.96361923217773	1597.740966796875	1263.0517578125	135.261474609375	1638.495971679688	1161.625244140625	124.5910034179688	1638.895263671875	1253.036254882812	-28.65489959716797	1586.46044921875	1118.138793945312	-62.00981140136719	956.4816284179688	1054.736938476562	4.437997341156006	959.1935424804688	1419.127563476562	112.7856369018555	962.257568359375	1342.024780273438	81.43797302246094	957.5204467773438	1093.012939453125	-23.02353477478027	488.2672119140625	1082.781372070312	-24.18793487548828	630.7200927734375	1062.010986328125	-112.5919799804688	47.12584686279297	1102.751098632812	-79.62983703613281	266.7657165527344	1084.357788085938	96.9896240234375	39.6484489440918	1151.688110351562	28.21479034423828	30.62753677368164	1194.620849609375	11.47472667694092	45.55401992797852	1083.536254882812	-156.6208648681641	38.98667907714844	1162.202880859375	15.26197910308838	485.9885559082031	1385.814331054688	53.11738586425781	747.6699829101562	1413.755615234375	-56.63618469238281	46.15765762329102	1371.620727539062	17.34299087524414	364.2461853027344	1373.394287109375	130.2763671875	44.75534439086914	1289.64794921875	67.31470489501953	43.06549072265625	1259.483764648438	49.37636184692383	36.58127975463867	1375.38916015625	-115.705810546875	42.97625732421875	1327.750122070312	
4	0.03	-108.010139465332	1017.040832519531	1328.786376953125	-119.5452346801758	1007.661010742188	1154.475830078125	-92.91506958007812	1079.56591796875	1234.261474609375	160.0287322998047	1249.1591796875	1210.241577148438	-106.1750793457031	1193.446166992188	1231.401733398438	-57.76516342163086	1437.615844726562	1208.09228515625	99.86070251464844	1351.928588867188	1209.289916992188	-105.7379608154297	1301.350952148438	1290.377075195312	-79.24687957763672	1400.232055664062	1105.219970703125	9.804368019104004	1404.13623046875	1051.541870117188	-19.87106513977051	1287.756958007812	978.1688842773438	-7.681209087371826	1084.467407226562	962.8207397460938	-74.6768798828125	1069.517578125	1017.514770507812	76.66283416748047	865.601318359375	1019.7294921875	49.20359420776367	852.0303344726562	954.5029907226562	10.78663635253906	980.8727416992188	955.7855224609375	82.48506927490234	678.2964477539062	1023.669067382812	54.29055023193359	763.4663696289062	959.3502197265625	104.1213989257812	767.3394775390625	1003.519409179688	19.19420433044434	1414.82373046875	1363.6015625	17.24673271179199	1356.304931640625	1431.316284179688	22.01297187805176	1088.534301757812	1481.910766601562	-27.19445991516113	1081.97705078125	1400.663696289062	114.3125762939453	867.24072265625	1408.79052734375	85.96810150146484	859.9790649414062	1487.96728515625	49.09006118774414	1021.222900390625	1488.128784179688	118.2752151489258	681.742431640625	1401.6572265625	146.9543609619141	750.731689453125	1418.001708984375	108.4744567871094	748.040283203125	1476.034545898438	-45.89148712158203	1597.84814453125	1263.899658203125	135.9274291992188	1638.254516601562	1161.420166015625	125.7130661010742	1638.684448242188	1252.853759765625	-28.37307929992676	1586.569213867188	1118.828369140625	-61.67279815673828	956.51904296875	1055.179931640625	4.890971183776855	959.2446899414062	1419.587768554688	113.3568115234375	962.1488647460938	1342.3154296875	81.79233551025391	957.4482421875	1093.353149414062	-22.99500465393066	488.2601318359375	1083.0322265625	-24.0640697479248	630.73291015625	1062.287231445312	-112.5816192626953	47.15040588378906	1102.775756835938	-79.61296081542969	266.8139953613281	1084.462890625	97.00191497802734	39.65511703491211	1151.684448242188	28.2168140411377	30.62739181518555	1194.621459960938	11.47489261627197	45.5625114440918	1083.537475585938	-156.5738220214844	38.97143173217773	1162.20556640625	15.25620651245117	485.9115600585938	1385.980346679688	53.37835693359375	747.5796508789062	1414.100708007812	-56.63938903808594	46.14363098144531	1371.624633789062	17.34532165527344	364.251220703125	1373.621459960938	130.2747039794922	44.74062728881836	1289.64013671875	67.31502532958984	43.06988906860352	1259.48583984375	49.37613296508789	36.56937026977539	1375.389404296875	-115.701171875	42.9725341796875	1327.7705078125	
